<svg width="50" height="61" viewBox="0 0 50 61" fill="none" xmlns="http://www.w3.org/2000/svg">
<path d="M37.2197 16.2921C41.3628 16.3306 44.541 19.8018 44.5099 23.1521L44.3223 43.369C44.2906 46.7192 36.7499 50.9124 24.8388 60.2279L24.9263 50.8026C20.7833 50.7641 5.83324 47.8124 5.86319 44.4623L6.06429 22.7952C6.09539 19.445 9.66851 16.0364 13.8116 16.0749L25.2728 13.4624L37.2197 16.2921ZM42.2928 26.6492C42.2799 26.6408 41.9006 26.7619 41.4436 26.9187L40.6088 27.2049L36.5598 28.5746L36.5571 28.6527L36.6855 28.8121C37.1191 29.6438 37.1233 29.6442 37.9662 29.4119L38.5389 29.2541C38.663 29.127 38.7325 29.1102 38.7744 29.1352C38.8149 29.1613 38.778 29.2342 38.6919 29.2966L38.5336 29.4094L38.251 29.8697L37.2368 30.9726L36.518 29.8213L36.5206 29.7432C35.9653 29.156 35.4968 29.0346 34.882 29.104L34.5388 29.1418L30.4898 30.5105L29.544 30.8748L28.4645 31.234C26.7439 31.8187 26.2854 31.9996 26.3361 32.0131L26.4355 32.0355L28.436 32.0912L32.4609 31.4244L34.0682 31.2352C34.8089 31.1537 34.8428 31.1759 35.166 31.6429L35.5062 32.1333C35.8655 32.4779 35.8517 32.5328 35.5421 32.8945L35.2005 33.2946C35.0388 33.5014 34.8548 33.6201 34.6871 33.6903L34.3822 33.8183L30.4061 33.005L28.4199 32.5588L27.7531 32.5409L26.4231 32.425L26.4177 32.5812L27.4705 33.0012L28.3915 33.416L32.3407 35.0094L33.7885 35.5951L34.3172 35.766C35.4798 35.9848 35.8378 35.8214 36.5048 35.0304C37.2038 34.202 37.1899 34.2001 37.9639 35.2295C38.4851 35.9219 38.4855 35.9217 37.7465 35.7178C37.0089 35.5131 37.0086 35.5129 36.7229 35.8372C36.2596 36.3647 36.3114 36.4491 37.413 36.9305L38.3992 37.3626L40.2429 38.116L40.6369 38.2828C41.8117 38.7002 41.9063 38.6781 41.7075 38.3621L41.5756 38.1528L40.3213 35.7778L39.6909 34.6684L38.9331 33.3986C38.5496 32.7064 38.5117 32.5092 38.5889 32.3944L38.7057 32.2226L39.5472 30.998L40.9566 28.7756L41.7981 27.5509C42.192 26.8669 42.3004 26.6596 42.2928 26.6492ZM9.84666 26.3754C8.67754 25.9459 8.58352 25.9674 8.77811 26.2854L8.90702 26.4956L10.1291 28.883L10.7437 29.9991L11.4848 31.2766C11.8591 31.9729 11.8941 32.1705 11.8153 32.2846L11.6966 32.4554L10.8376 33.6711L9.39906 35.8785L8.54009 37.0942C8.14111 37.767 8.02873 37.9756 8.03371 37.99C8.04122 38.0004 8.42433 37.8834 8.88674 37.7303L9.7253 37.4519L13.7925 36.1254L13.7961 36.0473L13.6707 35.8869C13.2482 35.0506 13.2439 35.0501 12.398 35.2735L11.8233 35.4254C11.6972 35.5517 11.6264 35.5671 11.5849 35.5414C11.5451 35.5147 11.5835 35.4423 11.6704 35.381L11.8306 35.2692L12.119 34.8129L13.1478 33.7208L13.8509 34.8788L13.8473 34.9569C14.3945 35.5497 14.8615 35.6765 15.477 35.6136L15.8211 35.5787L19.8882 34.2522L20.8398 33.8987L21.9241 33.5493C23.6574 32.9809 24.1159 32.8059 24.0621 32.7928L23.9627 32.7694L21.9643 32.6932L17.93 33.3189L16.32 33.4905C15.5782 33.5643 15.544 33.5424 15.2271 33.0721L14.8938 32.5778C14.5393 32.2296 14.5541 32.1744 14.8686 31.8158L15.2161 31.4196C15.3805 31.2147 15.5658 31.0983 15.7344 31.0299L16.0412 30.9048L20.0061 31.759L21.9862 32.2256L22.652 32.2514L23.981 32.3799L23.9883 32.2247L22.9415 31.7941L22.0264 31.3686L18.099 29.7354L16.6583 29.1341L16.1325 28.9573C14.9731 28.7265 14.6129 28.8866 13.9354 29.6703C13.2252 30.4914 13.2383 30.4939 12.4783 29.4566C11.9666 28.7589 11.9665 28.7588 12.7026 28.9704C13.4374 29.1827 13.438 29.1829 13.728 28.8617C14.1986 28.339 14.1472 28.2538 13.0517 27.7607L12.0714 27.319L10.2396 26.5461L9.84666 26.3754Z" fill="#D60036"/>
<path d="M0.357259 36.8581L4.62431 39.0815L4.77728 23.6746L0.474232 25.0763L0.357259 36.8581Z" fill="#D60036"/>
<path d="M49.5957 37.279L45.2881 39.4228L45.4211 24.0157L49.6974 25.4971L49.5957 37.279Z" fill="#D60036"/>
<ellipse cx="25.2627" cy="14.5502" rx="5.18237" ry="3.08158" transform="rotate(0.531765 25.2627 14.5502)" fill="#D60036"/>
<ellipse cx="31.8072" cy="2.64652" rx="2.32313" ry="2.3565" transform="rotate(0.531765 31.8072 2.64652)" fill="#D60036"/>
<ellipse cx="21.7564" cy="7.26651" rx="1.96573" ry="1.99396" transform="rotate(0.531765 21.7564 7.26651)" fill="#D60036"/>
<rect width="1.62117" height="9.14563" transform="matrix(0.860482 0.509482 -0.498871 0.866676 30.029 3.89868)" fill="#D60036"/>
<rect width="1.62277" height="9.13672" transform="matrix(0.829216 -0.558928 0.547895 0.836547 21.5671 8.36548)" fill="#D60036"/>
</svg>
