<svg width="59" height="62" viewBox="0 0 59 62" fill="none" xmlns="http://www.w3.org/2000/svg">
<path d="M0 11.964C0 5.35645 5.08524 0 11.3582 0L46.8526 0C53.1255 0 58.2108 5.35645 58.2108 11.964V49.3514C58.2108 55.9589 53.1255 61.3154 46.8526 61.3154H11.3582C5.08524 61.3154 0 55.9589 0 49.3514L0 11.964Z" fill="#D60036"/>
<path d="M24.162 32.8819L22.5251 33.5892L21.0901 34.3042L14.9508 36.995L14.4314 37.0692C13.5001 37.2048 12.7919 36.9641 11.9548 35.8046L11.9592 35.6509L10.8777 33.3791L9.33564 35.5516L8.90521 36.4585L8.66436 36.6817C8.53351 36.8044 8.47684 36.9469 8.53797 36.9985C8.60117 37.0485 8.70714 37.0172 8.89628 36.7659L9.76396 36.4556C11.042 35.9993 11.048 35.9996 11.6994 37.6412L11.8923 37.9563L11.8878 38.1099L5.74845 40.8008L4.48345 41.3653C3.78548 41.6758 3.20679 41.9139 3.19526 41.8935C3.18374 41.873 3.34913 41.4654 3.94997 40.1173L5.23232 37.7042L7.38 33.3236L8.66235 30.9105L8.83991 30.571C8.95761 30.3447 8.90221 29.9564 8.32571 28.5899L7.18626 26.085L6.23971 23.8952L4.35552 19.2082L4.15738 18.7961C3.8583 18.1724 4.001 18.1286 5.77717 18.9543L6.37368 19.2846L9.15892 20.7748L10.6494 21.6281C12.3148 22.5805 12.3928 22.7465 11.6878 23.7861C11.253 24.425 11.253 24.425 10.1374 24.0197C9.01979 23.6158 9.01979 23.6158 9.80439 24.9825C10.9697 27.0145 10.9496 27.0106 12.0133 25.3785C13.0284 23.8199 13.5711 23.4973 15.3304 23.9316L16.1287 24.2696L18.3174 25.4294L24.2871 28.5786L25.6774 29.4005L27.2696 30.2301L27.2607 30.5375L25.247 30.3074L24.2379 30.2692L21.233 29.3862L15.2187 27.7738L14.7568 28.0256C14.5023 28.1636 14.2228 28.3962 13.9766 28.8038L13.4566 29.5918C12.9854 30.3048 12.9641 30.4133 13.5059 31.0938L14.0172 32.0625C14.5036 32.984 14.5549 33.0275 15.6768 32.8684L18.112 32.499L24.2111 31.1913L27.2384 31.3059L27.3886 31.3501C27.4707 31.3747 26.7796 31.7286 24.162 32.8819Z" fill="white"/>
<path d="M34.0303 28.196L35.6597 27.4665L37.0872 26.7322L43.1982 23.9584L43.7167 23.8771C44.6465 23.729 45.3572 23.9601 46.2063 25.1081L46.2034 25.2618L47.3085 27.5189L48.8279 25.3256L49.2489 24.413L49.4874 24.1866C49.6169 24.0621 49.6721 23.9188 49.6105 23.8681C49.5468 23.8189 49.4411 23.8517 49.2546 24.1055L48.3902 24.4275C47.117 24.9011 47.111 24.9009 46.4426 23.2682L46.2465 22.9558L46.2493 22.8021L52.3603 20.0282L53.6193 19.4467C54.314 19.1267 54.8902 18.8808 54.9019 18.9011C54.9137 18.9214 54.7525 19.3312 54.1657 20.6873L52.9085 23.1177L50.8066 27.527L49.5494 29.9574L49.3754 30.2992C49.26 30.5271 49.3194 30.9146 49.9101 32.2732L51.0755 34.7624L52.0448 36.9393L53.9775 41.6005L54.18 42.0099C54.4855 42.6295 54.3433 42.6752 52.5586 41.8736L51.9587 41.5514L49.1582 40.0991L47.6589 39.2659C45.9838 38.3362 45.904 38.1712 46.5982 37.1222C47.0263 36.4774 47.0263 36.4774 48.146 36.8676C49.2678 37.2563 49.2678 37.2563 48.469 35.9003C47.2827 33.8843 47.3028 33.8879 46.2562 35.5343C45.2574 37.1066 44.718 37.4364 42.9544 37.026L42.1526 36.6989L39.952 35.5688L33.95 32.5006L32.5512 31.6976L30.9505 30.8896L30.9562 30.5821L32.9721 30.7849L33.9816 30.8095L36.9954 31.6518L43.0261 33.1826L43.4853 32.9246C43.7384 32.7831 44.0155 32.5468 44.2574 32.1358L44.7691 31.3408C45.2329 30.6215 45.2531 30.5128 44.7042 29.8396L44.1829 28.878C43.6869 27.9631 43.6352 27.9203 42.5151 28.0945L40.0839 28.4969L33.9988 29.8871L30.9705 29.8135L30.8198 29.7713C30.7375 29.7478 31.4249 29.3846 34.0303 28.196Z" fill="white"/>
</svg>
